<svg width="81" height="76" viewBox="0 0 81 76" fill="none" xmlns="http://www.w3.org/2000/svg">
<g filter="url(#filter0_d_1_25)">
<path d="M19.5401 18C21.54 14.5 24.3079 10.0915 28.0401 10H71.54C79.04 10.5 77.4599 18.5 70 41C62.5401 63.5 62.5 61 62.5 61C60.7154 65.4399 58.8786 66.864 54.5 68H9.04005C5.57619 66.4798 4.11914 65.0308 5.54005 57.5C5.54005 57.5 17.5401 21.5 19.5401 18Z" fill="#3A506B"/>
</g>
<g opacity="0.9" clip-path="url(#clip0_1_25)">
<g filter="url(#filter1_d_1_25)">
<path d="M14.5401 8.00002C16.54 4.50002 19.3079 0.0915146 23.0401 0H66.54C74.04 0.499996 72.4599 8.49997 65 31C57.5401 53.5 57.5 51 57.5 51C55.7154 55.4399 53.8786 56.864 49.5 58H4.04005C0.576189 56.4798 -0.880861 55.0308 0.540052 47.5C0.540052 47.5 12.5401 11.5 14.5401 8.00002Z" fill="#6FFFE9"/>
</g>
</g>
<defs>
<filter id="filter0_d_1_25" x="1" y="10" width="79.4406" height="66" filterUnits="userSpaceOnUse" color-interpolation-filters="sRGB">
<feFlood flood-opacity="0" result="BackgroundImageFix"/>
<feColorMatrix in="SourceAlpha" type="matrix" values="0 0 0 0 0 0 0 0 0 0 0 0 0 0 0 0 0 0 127 0" result="hardAlpha"/>
<feOffset dy="4"/>
<feGaussianBlur stdDeviation="2"/>
<feComposite in2="hardAlpha" operator="out"/>
<feColorMatrix type="matrix" values="0 0 0 0 0 0 0 0 0 0 0 0 0 0 0 0 0 0 0.25 0"/>
<feBlend mode="normal" in2="BackgroundImageFix" result="effect1_dropShadow_1_25"/>
<feBlend mode="normal" in="SourceGraphic" in2="effect1_dropShadow_1_25" result="shape"/>
</filter>
<filter id="filter1_d_1_25" x="-4" y="0" width="79.4406" height="66" filterUnits="userSpaceOnUse" color-interpolation-filters="sRGB">
<feFlood flood-opacity="0" result="BackgroundImageFix"/>
<feColorMatrix in="SourceAlpha" type="matrix" values="0 0 0 0 0 0 0 0 0 0 0 0 0 0 0 0 0 0 127 0" result="hardAlpha"/>
<feOffset dy="4"/>
<feGaussianBlur stdDeviation="2"/>
<feComposite in2="hardAlpha" operator="out"/>
<feColorMatrix type="matrix" values="0 0 0 0 0 0 0 0 0 0 0 0 0 0 0 0 0 0 0.25 0"/>
<feBlend mode="normal" in2="BackgroundImageFix" result="effect1_dropShadow_1_25"/>
<feBlend mode="normal" in="SourceGraphic" in2="effect1_dropShadow_1_25" result="shape"/>
</filter>
<clipPath id="clip0_1_25">
<rect width="71.4406" height="58" fill="white"/>
</clipPath>
</defs>
</svg>
